<svg width="14" height="14" viewBox="0 0 14 14" fill="none" xmlns="http://www.w3.org/2000/svg">
<path fill-rule="evenodd" clip-rule="evenodd" d="M12.7254 1.07754C12.4504 0.951971 12.1205 0.970195 11.8752 1.12444C11.7892 1.17853 10.8689 2.08095 9.2693 3.67981L6.79639 6.15156L4.25468 3.62319C1.98642 1.36676 1.6998 1.08987 1.59023 1.04895C1.40869 0.981198 1.19977 0.972476 0.999691 1.02434C0.848936 1.06343 0.794896 1.09762 0.641631 1.25089C0.488366 1.40415 0.454174 1.45819 0.415081 1.60895C0.363222 1.80903 0.371943 2.01795 0.439691 2.19949C0.480614 2.30905 0.75751 2.59567 3.01393 4.86394L5.54231 7.40564L3.07717 9.87078C1.38604 11.5619 0.581813 12.3827 0.51576 12.4848C0.395228 12.6712 0.358198 12.9312 0.416797 13.1794C0.456515 13.3474 0.483257 13.3912 0.644343 13.5523C0.79977 13.7077 0.853209 13.7417 1.00445 13.781C1.20457 13.833 1.41349 13.8245 1.59498 13.7568C1.70449 13.716 1.99085 13.4394 4.25688 11.1852L6.79605 8.65939L9.33711 11.1871C11.6048 13.443 11.8914 13.7198 12.0009 13.7607C12.1825 13.8285 12.3914 13.8372 12.5915 13.7853C12.7422 13.7462 12.7963 13.7121 12.9495 13.5588C13.1028 13.4055 13.137 13.3515 13.1761 13.2007C13.2279 13.0006 13.2192 12.7917 13.1515 12.6102C13.1106 12.5006 12.8337 12.2141 10.5779 9.94636L8.05013 7.4053L10.576 4.86613C13.3468 2.08072 13.1774 2.26947 13.2056 1.93637C13.2344 1.59671 13.0191 1.21171 12.7254 1.07754Z" fill="white"/>
</svg>
