<svg width="16" height="2" viewBox="0 0 16 2" fill="none" xmlns="http://www.w3.org/2000/svg">
<path d="M15.0104 0.20308C15.2501 0.262663 15.459 0.466635 15.5486 0.728741C15.6443 1.00879 15.5425 1.40163 15.3214 1.6051C15.1047 1.80462 15.3195 1.79195 11.9859 1.8015L8.94695 1.81024L7.44208 1.81024L4.40315 1.8015C1.6911 1.79375 1.3533 1.78738 1.26311 1.74242C1.11365 1.6679 0.983168 1.53678 0.894301 1.37177C0.827154 1.24706 0.815457 1.18987 0.815457 0.986433C0.815457 0.775588 0.825709 0.729402 0.902705 0.593431C1.01641 0.392706 1.19466 0.246742 1.37881 0.203646C1.47972 0.180033 2.45468 0.169219 4.48399 0.169219L7.44208 0.16922L8.94695 0.16922L11.9137 0.169977C13.8327 0.170481 14.9263 0.182178 15.0104 0.20308Z" fill="white"/>
</svg>
