<svg width="20" height="20" viewBox="0 0 20 20" fill="none" xmlns="http://www.w3.org/2000/svg">
<path fill-rule="evenodd" clip-rule="evenodd" d="M9.32577 0.0201127C4.68552 0.341834 0.856525 3.83851 0.119006 8.42779C-0.102934 9.80898 -0.0112326 11.3898 0.367223 12.7057C1.49721 16.6349 4.77645 19.4339 8.85729 19.9525C9.35551 20.0158 10.6404 20.0158 11.1386 19.9525C13.6577 19.6324 15.9333 18.4284 17.5421 16.5645C20.0486 13.6607 20.6934 9.65558 19.2206 6.13865C17.9525 3.11054 15.2095 0.851559 12.0145 0.204163C11.1585 0.0307091 10.1594 -0.0376781 9.32577 0.0201127ZM10.9263 1.28344C14.481 1.66878 17.4602 4.18692 18.4322 7.62784C18.7966 8.91807 18.8537 10.3956 18.5901 11.7197C18.0587 14.3899 16.2716 16.6954 13.8069 17.8904C10.423 19.5312 6.39281 18.8267 3.75625 16.1334C2.46893 14.8184 1.69072 13.3027 1.35141 11.4497C1.23229 10.7992 1.22292 9.27529 1.33414 8.63939C1.50116 7.68429 1.72661 6.98481 2.1359 6.15157C3.45846 3.45936 6.06096 1.61988 9.02024 1.28564C9.46677 1.23523 10.4707 1.23405 10.9263 1.28344ZM9.67204 4.41442C8.7785 4.70855 8.47142 5.76998 9.08302 6.45047C9.32981 6.72508 9.60104 6.84151 9.99795 6.84314C10.2519 6.8442 10.3428 6.82509 10.5363 6.73005C11.4489 6.2817 11.4587 4.97448 10.5529 4.51309C10.3303 4.39962 9.8726 4.3484 9.67204 4.41442ZM9.11862 8.18489C8.78233 8.33466 8.65641 8.80265 8.8702 9.10803C9.01005 9.30777 9.13455 9.35028 9.58038 9.35057L9.99795 9.35085V11.8777V14.4045H9.5966C9.24743 14.4045 9.17773 14.4164 9.06057 14.4962C8.8414 14.6454 8.76013 14.786 8.76013 15.0158C8.76013 15.2457 8.8414 15.3862 9.06057 15.5355C9.19382 15.6262 9.21004 15.6272 10.6049 15.6271C11.8656 15.627 12.0295 15.6195 12.1562 15.5557C12.5775 15.344 12.5956 14.7344 12.188 14.4858C12.0796 14.4197 11.9825 14.4048 11.6591 14.4047L11.2629 14.4045L11.2517 11.5007C11.2408 8.68084 11.2381 8.59289 11.159 8.45852C10.9848 8.16263 10.9398 8.14971 10.046 8.13875C9.43695 8.13129 9.21411 8.14238 9.11862 8.18489Z" fill="#7F8493"/>
</svg>
