<svg width="13" height="25" viewBox="0 0 13 25" fill="none" xmlns="http://www.w3.org/2000/svg">
<path fill-rule="evenodd" clip-rule="evenodd" d="M11.9389 1.00192C11.7575 0.546599 11.2835 0.292455 10.7948 0.388509C10.5871 0.429344 9.97829 1.07139 5.34137 6.13956C0.704515 11.2078 0.117113 11.8732 0.0797534 12.1003C-0.0266509 12.7468 -0.331955 12.3713 5.34137 18.5723C11.0131 24.7716 10.6739 24.4421 11.2596 24.322C11.5666 24.2591 11.9397 23.8513 11.9972 23.5158C12.1067 22.8783 12.3646 23.1992 7.20481 17.5539L2.4535 12.3555L7.17487 7.19172C9.81919 4.2996 11.9249 1.94351 11.9614 1.836C12.0487 1.57927 12.0399 1.25545 11.9389 1.00192Z" fill="#7F8493"/>
</svg>
