<svg width="40" height="26" viewBox="0 0 40 26" fill="none" xmlns="http://www.w3.org/2000/svg">
<path fill-rule="evenodd" clip-rule="evenodd" d="M1.99284 3.59806C1.49633 2.48219 2.15881 1.00086 1.01047 0.348067C-0.0371642 0.652144 0.116753 1.78197 0.0947645 2.85252C-0.0116298 7.84189 -0.132211 20.247 0.366424 24.8039C0.442318 25.4951 0.411111 25.7768 1.01047 25.9895C2.20137 25.2586 1.81197 12.5167 1.94957 10.5514C2.15101 7.66264 2.16236 5.98325 4.05193 4.20482C7.4381 1.0169 13.4607 0.339002 16.9313 4.17274C18.584 5.99859 18.6904 7.81538 18.8315 10.6741L19.1606 22.7395C19.1762 23.6678 19.2394 25.7273 20.1068 26C20.6977 25.7371 20.6239 25.2824 20.687 24.5605C21.08 20.1061 20.4863 14.3781 20.9168 10.3143C21.2098 7.54827 21.5112 5.8082 23.2816 4.16716C24.7917 2.76743 26.5132 1.74013 29.6469 1.54415C30.8824 1.46674 32.2627 1.75338 33.3962 2.17671C34.8034 2.70048 35.2567 3.15311 36.0752 3.97537C37.8733 5.78867 38.2896 7.12424 38.3208 10.1748C38.3442 12.5042 38.2627 25.0138 39.2025 25.9958C40.1324 25.6171 39.9309 21.4493 39.9352 20.4918C39.9444 18.3995 39.9593 16.3072 39.9593 14.2149C39.9593 9.90626 40.4494 6.5105 38.0279 3.45021C36.2256 1.17242 32.5514 -0.493721 28.0573 0.163252C22.4333 0.985515 20.2444 5.21888 19.9373 5.39393C19.2805 5.1045 19.1933 4.32268 18.5059 3.68245C16.81 2.10278 14.8439 0.191147 11.9953 0.0258576C5.63082 -0.343079 3.98029 3.35396 1.99426 3.60015" fill="#FDFEFF"/>
</svg>
