<svg width="20" height="20" viewBox="0 0 20 20" fill="none" xmlns="http://www.w3.org/2000/svg">
<path fill-rule="evenodd" clip-rule="evenodd" d="M1.05792 0.0516655C0.889128 0.128291 0.714836 0.341118 0.684828 0.507252C0.67145 0.581126 0.666032 1.90182 0.672742 3.44213C0.684703 6.19608 0.686329 6.24465 0.770849 6.35784C0.818111 6.42116 0.90855 6.51163 0.971857 6.55891C1.08555 6.64383 1.12285 6.64487 3.99823 6.64487C6.8736 6.64487 6.9109 6.64383 7.02459 6.55891C7.24327 6.39557 7.31154 6.26232 7.31154 5.99868C7.31154 5.73503 7.24331 5.60183 7.02464 5.43845C6.9129 5.35495 6.8488 5.3519 4.80234 5.33164L2.69511 5.3108L3.01844 4.87622C3.57554 4.12751 4.40253 3.33061 5.13421 2.83734C7.7381 1.08207 11.0275 0.849984 13.8131 2.22496C14.771 2.69772 15.4687 3.21263 16.2515 4.02446C17.7383 5.56635 18.5288 7.4153 18.6597 9.65734C18.6971 10.2975 18.7233 10.3721 18.9763 10.5611C19.1377 10.6817 19.533 10.6817 19.6944 10.5611C20.0024 10.331 20.0462 10.1027 19.963 9.15785C19.535 4.29698 15.702 0.460768 10.8476 0.0346561C9.78277 -0.0587708 8.62682 0.0379078 7.55564 0.310059C5.50543 0.830932 3.54357 2.08033 2.24992 3.68894L2.00032 3.99932L1.98861 2.20878C1.97727 0.474901 1.97419 0.414617 1.89096 0.30318C1.8437 0.239895 1.75601 0.151471 1.69612 0.106738C1.55817 0.00372221 1.22663 -0.0248771 1.05792 0.0516655ZM0.393173 9.3904C0.238802 9.46189 0.100393 9.60898 0.0417118 9.7639C-0.0521029 10.0116 0.0190812 11.0626 0.187706 11.9186C1.29556 17.5434 6.90256 21.0995 12.4438 19.6917C13.8226 19.3414 15.1833 18.6559 16.3184 17.7396C16.7519 17.3897 17.412 16.7325 17.7415 16.3227L17.9991 16.0025L18.0108 17.793C18.0221 19.5269 18.0252 19.5872 18.1084 19.6986C18.2718 19.9174 18.4049 19.9856 18.6685 19.9856C18.9321 19.9856 19.0653 19.9173 19.2285 19.6986C19.3134 19.5849 19.3145 19.5475 19.3145 16.6713C19.3145 13.795 19.3134 13.7577 19.2285 13.644C19.1813 13.5806 19.0908 13.4902 19.0275 13.4429C18.9138 13.358 18.8765 13.3569 16.0012 13.3569C13.1258 13.3569 13.0885 13.358 12.9748 13.4429C12.7561 13.6062 12.6879 13.7395 12.6879 14.0031C12.6879 14.2668 12.7561 14.4 12.9748 14.5634C13.0865 14.6469 13.1506 14.6499 15.1971 14.6702L17.3043 14.691L16.981 15.1256C16.597 15.6416 16.0361 16.2339 15.532 16.6556C12.6209 19.0911 8.42681 19.3357 5.26937 17.254C4.67556 16.8625 4.2873 16.5367 3.74791 15.9773C2.26113 14.4354 1.47065 12.5865 1.3397 10.3445C1.30248 9.7072 1.27551 9.6292 1.02929 9.44526C0.891171 9.34212 0.559256 9.31348 0.393173 9.3904Z" fill="#7F8493"/>
</svg>
