<svg width="13" height="25" viewBox="0 0 13 25" fill="none" xmlns="http://www.w3.org/2000/svg">
<path fill-rule="evenodd" clip-rule="evenodd" d="M1.0611 24.2158C1.24253 24.6711 1.71648 24.9253 2.20515 24.8292C2.41291 24.7884 3.02171 24.1463 7.65863 19.0782C12.2955 14.0099 12.8829 13.3445 12.9202 13.1174C13.0267 12.4709 13.332 12.8464 7.65863 6.64537C1.98692 0.446091 2.32609 0.775564 1.74044 0.895683C1.43345 0.958607 1.06035 1.36641 1.00278 1.70195C0.893322 2.33943 0.635359 2.01847 5.79519 7.66386L10.5465 12.8622L5.82513 18.026C3.18081 20.9181 1.07507 23.2742 1.03858 23.3817C0.951324 23.6384 0.960055 23.9623 1.0611 24.2158Z" fill="#7F8493"/>
</svg>
