<svg width="20" height="20" viewBox="0 0 20 20" fill="none" xmlns="http://www.w3.org/2000/svg">
<path fill-rule="evenodd" clip-rule="evenodd" d="M8.94577 0.0271614C8.71369 0.0857468 8.34166 0.311502 8.20586 0.476122C7.89673 0.85098 7.87902 0.933178 7.85333 2.11003L7.82998 3.18201L7.60626 3.2638C7.48322 3.30875 7.22577 3.41854 7.03414 3.50772L6.68573 3.66988L5.93794 2.93027C5.08277 2.08445 4.97732 2.02188 4.40716 2.02188C3.88166 2.02188 3.71235 2.12707 2.87987 2.97083C2.26814 3.59085 2.17132 3.70919 2.08327 3.94491C2.00662 4.15005 1.98702 4.28171 1.99996 4.50394C2.0281 4.98809 2.15566 5.19064 2.94922 6.01115L3.64998 6.73573L3.51982 6.99502C3.44823 7.13764 3.34461 7.38862 3.28949 7.55275L3.18935 7.85117L2.10922 7.8658L1.02908 7.88042L0.746085 8.03377C0.440403 8.19947 0.259821 8.38774 0.100984 8.70639C0.00442953 8.90012 0 8.9571 0 10.0047V11.1004L0.152886 11.3822C0.322819 11.6955 0.46255 11.8305 0.800582 12.008C1.02555 12.1261 1.04559 12.1283 2.10161 12.1508L3.17409 12.1737L3.25593 12.3973C3.30089 12.5203 3.41074 12.7776 3.49996 12.9692L3.66219 13.3174L2.92188 14.0648C2.10255 14.8921 1.99105 15.0727 1.99105 15.5726C1.99105 16.0633 2.10814 16.2564 2.87987 17.0386C3.72094 17.891 3.87857 17.9875 4.42953 17.9875C4.9753 17.9874 5.13436 17.893 6.00456 17.0522L6.72949 16.3517L6.9889 16.4818C7.13159 16.5534 7.38268 16.657 7.54689 16.7121L7.84546 16.8121L7.86018 17.8918C7.87485 18.9644 7.87571 18.9729 7.99539 19.1998C8.17378 19.5381 8.30864 19.6775 8.62188 19.8472L8.9038 20H10H11.0962L11.3781 19.8472C11.6916 19.6773 11.8266 19.5377 12.0042 19.1998C12.1224 18.9749 12.1246 18.9549 12.1471 17.8994L12.17 16.8274L12.3937 16.7456C12.5168 16.7007 12.7742 16.5909 12.9659 16.5017L13.3143 16.3395L14.0621 17.0791C14.9172 17.925 15.0227 17.9875 15.5928 17.9875C16.1184 17.9875 16.2877 17.8823 17.1198 17.0386C17.9185 16.2286 17.9866 16.1118 17.9866 15.5502C17.9866 15.0303 17.8834 14.8592 17.0508 13.9983L16.35 13.2737L16.4802 13.0144C16.5518 12.8718 16.6554 12.6208 16.7105 12.4567L16.8106 12.1582L17.8908 12.1435C18.9639 12.1288 18.9724 12.128 19.1994 12.0084C19.5379 11.8301 19.6773 11.6953 19.8471 11.3822L20 11.1004V10.0047V8.90902L19.8471 8.62723C19.6772 8.31391 19.5374 8.17894 19.1994 8.00144C18.9745 7.88333 18.9544 7.88109 17.8984 7.8586L16.8259 7.8357L16.7441 7.61209C16.6991 7.48911 16.5893 7.23178 16.5 7.04024L16.3378 6.69199L17.0781 5.94456C17.7351 5.28124 17.8296 5.16693 17.9181 4.92879C17.9968 4.71708 18.0135 4.59714 17.9971 4.36033C17.9631 3.86723 17.8413 3.68057 17.0372 2.88828C16.2268 2.0899 16.1099 2.02188 15.5481 2.02188C15.0283 2.02188 14.8566 2.12523 13.9986 2.95424L13.2768 3.65167L13.0142 3.52574C12.8698 3.45646 12.6173 3.35213 12.4531 3.29386L12.1545 3.18787L12.1398 2.11294C12.1252 1.04534 12.1243 1.03644 12.0046 0.809612C11.8262 0.471337 11.6914 0.33194 11.3781 0.162221L11.0962 0.00940695L10.0895 0.000999282C9.53579 -0.00360705 9.02112 0.00815471 8.94577 0.0271614ZM10.7242 2.48028C10.7371 3.45374 10.7462 3.55968 10.8339 3.74912C11.0244 4.16105 11.3252 4.40975 11.8547 4.59325C11.9789 4.63631 12.2718 4.75948 12.5056 4.86699C12.9014 5.049 12.9568 5.06247 13.311 5.06269C13.8812 5.06309 14.0298 4.97405 14.8763 4.12546L15.5692 3.43079L16.0722 3.93208L16.5752 4.43341L15.8446 5.17302C15.2074 5.81804 15.1017 5.94576 15.0178 6.17152C14.8869 6.52397 14.8912 6.91001 15.0295 7.23196C15.0877 7.36724 15.209 7.65905 15.2993 7.88042C15.593 8.60107 15.6524 8.71001 15.851 8.89301C16.231 9.24305 16.3255 9.26492 17.528 9.28088L18.5906 9.29501V10.0047V10.7144L17.528 10.7285C16.3255 10.7445 16.231 10.7664 15.851 11.1164C15.6524 11.2994 15.593 11.4083 15.2993 12.129C15.209 12.3504 15.0877 12.6422 15.0295 12.7774C14.8912 13.0994 14.8869 13.4854 15.0178 13.8379C15.1017 14.0636 15.2074 14.1913 15.8443 14.8361L16.5747 15.5755L16.0741 16.0759L15.5734 16.5763L14.8337 15.8463C14.1886 15.2096 14.0608 15.104 13.835 15.0202C13.4824 14.8893 13.0962 14.8936 12.774 15.0319C12.6387 15.09 12.3468 15.2113 12.1253 15.3015C11.4043 15.5951 11.2953 15.6544 11.1122 15.853C10.762 16.2327 10.7401 16.3272 10.7242 17.5291L10.71 18.5913H10H9.28998L9.27584 17.5291C9.26 16.3344 9.23857 16.2395 8.90103 15.8661C8.7038 15.6479 8.65208 15.6188 7.92747 15.3195C6.84304 14.8716 6.65253 14.8393 6.16501 15.0202C5.93919 15.104 5.81141 15.2096 5.16631 15.8463L4.42658 16.5763L3.92591 16.0759L3.42528 15.5755L4.15566 14.8361C4.80031 14.1835 4.89785 14.0653 4.98658 13.8284C5.14425 13.4076 5.10439 13.0646 4.82291 12.4197C4.69942 12.1368 4.56434 11.8113 4.52273 11.6963C4.36358 11.2565 4.00926 10.9124 3.58635 10.7869C3.4174 10.7368 3.12022 10.7202 2.38559 10.7202H1.4094V10.0047V9.28916H2.38559C3.12022 9.28916 3.4174 9.27265 3.58635 9.22252C4.00926 9.09699 4.36358 8.7529 4.52273 8.31306C4.56434 8.19808 4.69942 7.8726 4.82291 7.58973C5.10439 6.9448 5.14425 6.60183 4.98658 6.181C4.89785 5.94415 4.80031 5.82586 4.15566 5.17329L3.42528 4.4339L3.92546 3.93396L4.42559 3.43401L5.16609 4.16293C5.99333 4.97727 6.17329 5.08675 6.67955 5.08384C6.95476 5.08228 7.06783 5.04614 7.97732 4.66891C8.62658 4.3996 8.81928 4.2759 9.01915 4.00006C9.24966 3.682 9.28412 3.47319 9.28412 2.39388V1.41814H9.99709H10.71L10.7242 2.48028ZM9.32886 6.49119C8.69866 6.62482 8.16286 6.88174 7.703 7.27091C6.09673 8.63023 5.99235 11.045 7.47579 12.5277C8.17387 13.2254 8.98881 13.5581 10 13.5581C11.0112 13.5581 11.8261 13.2254 12.5242 12.5277C13.2222 11.83 13.5551 11.0154 13.5551 10.0047C13.5551 9.22722 13.3968 8.6737 13.0027 8.07241C12.495 7.29801 11.7783 6.78492 10.8508 6.53193C10.5027 6.43699 9.68747 6.41516 9.32886 6.49119ZM10.5127 7.92653C11.5762 8.2034 12.2711 9.22735 12.1177 10.2915C11.9928 11.1581 11.3625 11.8616 10.5127 12.0829C9.39307 12.3744 8.22018 11.6658 7.92085 10.5171C7.52206 8.98684 8.98166 7.52793 10.5127 7.92653Z" fill="#7F8493"/>
</svg>
